<svg xmlns="http://www.w3.org/2000/svg" xmlns:xlink="http://www.w3.org/1999/xlink" width="1080" zoomAndPan="magnify" viewBox="0 0 810 625.499986" height="834" preserveAspectRatio="xMidYMid meet" version="1.0"><defs><g/></defs><path stroke-linecap="butt" transform="matrix(1.163445, 0, 0, 1.163445, 82.537212, 238.681746)" fill="none" stroke-linejoin="miter" d="M 48.953717 111.933412 C 37.780008 111.933412 28.563712 109.314574 21.301473 104.070183 C 14.035876 98.825792 10.104262 91.143867 9.503272 81.024408 L 40.640585 81.024408 C 41.090488 86.396383 43.474302 89.082371 47.795385 89.082371 C 49.36333 89.082371 50.696251 88.706333 51.790791 87.954256 C 52.908834 87.20218 53.466176 86.04049 53.466176 84.472545 C 53.466176 82.259962 52.274269 80.477138 49.890455 79.124072 C 47.503283 77.747503 43.81005 76.179558 38.800683 74.416878 C 32.807573 72.311735 27.855283 70.25024 23.943813 68.229034 C 20.032344 66.207828 16.668144 63.266672 13.854572 59.398849 C 11.041 55.507524 9.674503 50.53509 9.761798 44.47483 C 9.761798 38.394425 11.319671 33.223899 14.435417 28.969966 C 17.571307 24.695888 21.848743 21.46263 27.264366 19.270192 C 32.676631 17.05761 38.770466 15.94964 45.539155 15.94964 C 56.968033 15.94964 66.046671 18.59198 72.77507 23.880019 C 79.520257 29.141197 83.065761 36.578026 83.411582 46.183789 L 51.888158 46.183789 C 51.780719 43.538092 51.115937 41.647828 49.890455 40.50964 C 48.664973 39.347951 47.170892 38.770463 45.408213 38.770463 C 44.162586 38.770463 43.141911 39.186791 42.346187 40.026163 C 41.573965 40.865534 41.187855 42.033938 41.187855 43.538092 C 41.187855 45.646592 42.346187 47.385769 44.669566 48.762338 C 47.009733 50.115404 50.726469 51.757214 55.819773 53.691125 C 61.728946 55.907065 66.597299 58.02228 70.421474 60.043486 C 74.245649 62.061335 77.566201 64.878264 80.379773 68.48756 C 83.196703 72.096856 84.603489 76.629461 84.603489 82.088731 C 84.603489 87.80317 83.196703 92.930049 80.379773 97.462653 C 77.566201 101.995257 73.473427 105.540761 68.101452 108.099164 C 62.729476 110.657568 56.346898 111.933412 48.953717 111.933412 Z M 140.458604 111.933412 C 131.648564 111.933412 123.567099 109.871916 116.217565 105.745568 C 108.871388 101.599074 103.03608 95.871205 98.718355 88.565319 C 94.420774 81.262789 92.271984 73.030237 92.271984 63.877734 C 92.271984 54.725231 94.420774 46.492678 98.718355 39.186791 C 103.03608 31.880905 108.871388 26.189968 116.217565 22.107267 C 123.567099 18.001063 131.648564 15.94964 140.458604 15.94964 C 149.268644 15.94964 157.313177 18.001063 164.598919 22.107267 C 171.904806 26.189968 177.696467 31.880905 181.970545 39.186791 C 186.24798 46.492678 188.386698 54.725231 188.386698 63.877734 C 188.386698 73.030237 186.24798 81.262789 181.970545 88.565319 C 177.696467 95.871205 171.881303 101.599074 164.535127 105.745568 C 157.185593 109.871916 149.161204 111.933412 140.458604 111.933412 Z M 140.458604 84.603487 C 146.260338 84.603487 150.739222 82.733368 153.898615 78.99313 C 157.078153 75.256249 158.669601 70.216665 158.669601 63.877734 C 158.669601 57.451508 157.078153 52.371634 153.898615 48.631396 C 150.739222 44.894515 146.260338 43.024396 140.458604 43.024396 C 134.549431 43.024396 130.013469 44.894515 126.854076 48.631396 C 123.698041 52.371634 122.116665 57.451508 122.116665 63.877734 C 122.116665 70.216665 123.698041 75.256249 126.854076 78.99313 C 130.013469 82.733368 134.549431 84.603487 140.458604 84.603487 Z M 227.595404 17.527658 L 227.595404 70.19652 C 227.595404 74.514245 228.542215 77.932165 230.432478 80.443563 C 232.322742 82.958319 235.374696 84.214018 239.584982 84.214018 C 243.81877 84.214018 246.944588 82.958319 248.965794 80.443563 C 250.987 77.932165 251.994245 74.514245 251.994245 70.19652 L 251.994245 17.527658 L 281.197647 17.527658 L 281.197647 70.19652 C 281.197647 79.090497 279.347673 86.685127 275.65444 92.983768 C 271.957849 99.279052 266.898119 104.016463 260.471894 107.196001 C 254.049026 110.355394 246.870723 111.933412 238.940345 111.933412 C 231.013323 111.933412 223.986108 110.355394 217.862056 107.196001 C 211.761506 104.016463 206.99052 99.299197 203.552456 93.047561 C 200.114392 86.792567 198.39536 79.177791 198.39536 70.19652 L 198.39536 17.527658 Z M 340.856792 111.000031 L 323.290432 77.478904 L 323.15949 77.478904 L 323.15949 111.000031 L 293.862079 111.000031 L 293.862079 17.527658 L 337.405298 17.527658 C 344.993213 17.527658 351.459729 18.870652 356.808202 21.556639 C 362.180177 24.242627 366.209159 27.89557 368.895146 32.515469 C 371.581134 37.135368 372.924128 42.346185 372.924128 48.147918 C 372.924128 54.402912 371.184951 59.956192 367.703239 64.811114 C 364.24503 69.645892 359.259165 73.117532 352.749003 75.222674 L 373.05507 111.000031 Z M 323.15949 57.914841 L 334.796532 57.914841 C 337.610104 57.914841 339.715247 57.280276 341.111961 56.014505 C 342.532177 54.745375 343.240606 52.747672 343.240606 50.018037 C 343.240606 47.546928 342.508674 45.613017 341.048169 44.216303 C 339.607808 42.799445 337.526167 42.087658 334.796532 42.087658 L 323.15949 42.087658 Z M 379.669315 64.13626 C 379.669315 54.896462 381.539434 46.667267 385.276314 39.445318 C 389.016552 32.226726 394.354953 26.619726 401.298231 22.620962 C 408.258297 18.602053 416.443844 16.594277 425.858231 16.594277 C 433.956485 16.594277 441.198579 18.118575 447.581157 21.170529 C 453.963736 24.202337 459.15105 28.486488 463.149814 34.029695 C 467.165365 39.57626 469.831208 46.042775 471.140627 53.435956 L 440.265198 53.435956 C 438.844982 50.3605 436.837206 47.966614 434.238513 46.247582 C 431.659965 44.52855 428.691949 43.669033 425.341179 43.669033 C 420.419106 43.669033 416.521067 45.51565 413.640345 49.212241 C 410.783125 52.908831 409.356194 57.881266 409.356194 64.13626 C 409.356194 70.387897 410.783125 75.363689 413.640345 79.060279 C 416.521067 82.753513 420.419106 84.603487 425.341179 84.603487 C 428.691949 84.603487 431.659965 83.743971 434.238513 82.024938 C 436.837206 80.305906 438.844982 77.908662 440.265198 74.836564 L 471.140627 74.836564 C 469.831208 82.226387 467.165365 88.69626 463.149814 94.239468 C 459.15105 99.782675 453.963736 104.070183 447.581157 107.098634 C 441.198579 110.130443 433.956485 111.644668 425.858231 111.644668 C 416.443844 111.644668 408.258297 109.646965 401.298231 105.648201 C 394.354953 101.652794 389.016552 96.045794 385.276314 88.823845 C 381.539434 81.605253 379.669315 73.376058 379.669315 64.13626 Z M 511.017473 40.895751 L 511.017473 52.371634 L 540.059715 52.371634 L 540.059715 74.416878 L 511.017473 74.416878 L 511.017473 87.631938 L 544.024905 87.631938 L 544.024905 111.000031 L 481.720061 111.000031 L 481.720061 17.527658 L 544.024905 17.527658 L 544.024905 40.895751 Z M 511.017473 40.895751 " stroke="#ff9100" stroke-width="4.9509" stroke-opacity="1" stroke-miterlimit="4"/><g fill="#ff9100" fill-opacity="1"><g transform="translate(198.882862, 219.344021)"><g><path d="M 58.75 1.046875 C 48.832031 1.046875 39.734375 -1.28125 31.453125 -5.9375 C 23.171875 -10.601562 16.601562 -17.050781 11.75 -25.28125 C 6.894531 -33.507812 4.46875 -42.78125 4.46875 -53.09375 C 4.46875 -63.40625 6.894531 -72.675781 11.75 -80.90625 C 16.601562 -89.132812 23.171875 -95.550781 31.453125 -100.15625 C 39.734375 -104.769531 48.832031 -107.078125 58.75 -107.078125 C 68.65625 -107.078125 77.722656 -104.769531 85.953125 -100.15625 C 94.179688 -95.550781 100.703125 -89.132812 105.515625 -80.90625 C 110.328125 -72.675781 112.734375 -63.40625 112.734375 -53.09375 C 112.734375 -42.78125 110.328125 -33.507812 105.515625 -25.28125 C 100.703125 -17.050781 94.15625 -10.601562 85.875 -5.9375 C 77.601562 -1.28125 68.5625 1.046875 58.75 1.046875 Z M 58.75 -29.75 C 65.289062 -29.75 70.34375 -31.851562 73.90625 -36.0625 C 77.476562 -40.28125 79.265625 -45.957031 79.265625 -53.09375 C 79.265625 -60.332031 77.476562 -66.054688 73.90625 -70.265625 C 70.34375 -74.484375 65.289062 -76.59375 58.75 -76.59375 C 52.101562 -76.59375 46.992188 -74.484375 43.421875 -70.265625 C 39.859375 -66.054688 38.078125 -60.332031 38.078125 -53.09375 C 38.078125 -45.957031 39.859375 -40.28125 43.421875 -36.0625 C 46.992188 -31.851562 52.101562 -29.75 58.75 -29.75 Z M 58.75 -29.75 "/></g></g></g><g fill="#ff9100" fill-opacity="1"><g transform="translate(316.065405, 219.344021)"><g><path d="M 93.546875 -69.15625 C 93.546875 -62.507812 92.007812 -56.484375 88.9375 -51.078125 C 85.863281 -45.679688 81.328125 -41.394531 75.328125 -38.21875 C 69.328125 -35.050781 62.0625 -33.46875 53.53125 -33.46875 L 40.453125 -33.46875 L 40.453125 0 L 7.4375 0 L 7.4375 -105.296875 L 53.53125 -105.296875 C 66.425781 -105.296875 76.316406 -102.019531 83.203125 -95.46875 C 90.097656 -88.925781 93.546875 -80.15625 93.546875 -69.15625 Z M 49.828125 -59.484375 C 56.660156 -59.484375 60.078125 -62.707031 60.078125 -69.15625 C 60.078125 -75.601562 56.660156 -78.828125 49.828125 -78.828125 L 40.453125 -78.828125 L 40.453125 -59.484375 Z M 49.828125 -59.484375 "/></g></g></g><g fill="#ff9100" fill-opacity="1"><g transform="translate(412.577417, 219.344021)"><g><path d="M 40.453125 -78.96875 L 40.453125 -66.03125 L 73.171875 -66.03125 L 73.171875 -41.1875 L 40.453125 -41.1875 L 40.453125 -26.328125 L 77.625 -26.328125 L 77.625 0 L 7.4375 0 L 7.4375 -105.296875 L 77.625 -105.296875 L 77.625 -78.96875 Z M 40.453125 -78.96875 "/></g></g></g><g fill="#ff9100" fill-opacity="1"><g transform="translate(495.259505, 219.344021)"><g><path d="M 108.421875 0 L 75.40625 0 L 40.453125 -52.9375 L 40.453125 0 L 7.4375 0 L 7.4375 -105.296875 L 40.453125 -105.296875 L 75.40625 -51.453125 L 75.40625 -105.296875 L 108.421875 -105.296875 Z M 108.421875 0 "/></g></g></g><g fill="#ff9100" fill-opacity="1"><g transform="translate(237.982978, 507.113956)"><g><path d="M 51.3125 -105.296875 C 62.3125 -105.296875 71.953125 -103.0625 80.234375 -98.59375 C 88.515625 -94.132812 94.882812 -87.9375 99.34375 -80 C 103.800781 -72.070312 106.03125 -63.050781 106.03125 -52.9375 C 106.03125 -42.925781 103.800781 -33.90625 99.34375 -25.875 C 94.882812 -17.84375 88.515625 -11.519531 80.234375 -6.90625 C 71.953125 -2.300781 62.3125 0 51.3125 0 L 7.4375 0 L 7.4375 -105.296875 Z M 48.328125 -29.453125 C 55.765625 -29.453125 61.664062 -31.484375 66.03125 -35.546875 C 70.394531 -39.609375 72.578125 -45.40625 72.578125 -52.9375 C 72.578125 -60.476562 70.394531 -66.28125 66.03125 -70.34375 C 61.664062 -74.40625 55.765625 -76.4375 48.328125 -76.4375 L 40.453125 -76.4375 L 40.453125 -29.453125 Z M 48.328125 -29.453125 "/></g></g></g><g fill="#ff9100" fill-opacity="1"><g transform="translate(348.473611, 507.113956)"><g><path d="M 74.953125 -15.90625 L 39.859375 -15.90625 L 34.65625 0 L 0 0 L 38.515625 -105.296875 L 76.59375 -105.296875 L 114.953125 0 L 80.15625 0 Z M 66.921875 -40.75 L 57.40625 -70.046875 L 47.890625 -40.75 Z M 66.921875 -40.75 "/></g></g></g><g fill="#ff9100" fill-opacity="1"><g transform="translate(463.425517, 507.113956)"><g><path d="M 108.5625 -105.296875 L 70.796875 -31.96875 L 70.796875 0 L 37.78125 0 L 37.78125 -31.96875 L 0 -105.296875 L 37.78125 -105.296875 L 54.578125 -67.96875 L 71.390625 -105.296875 Z M 108.5625 -105.296875 "/></g></g></g></svg>